<?xml version="1.0" encoding="UTF-8" standalone="no"?>
<!-- Created with Inkscape (http://www.inkscape.org/) -->

<svg
   width="56.165886mm"
   height="45.835423mm"
   viewBox="0 0 56.165886 45.835423"
   version="1.1"
   id="svg5"
   xml:space="preserve"
   inkscape:version="1.2.1 (9c6d41e410, 2022-07-14)"
   sodipodi:docname="selectedLogo.svg"
   xmlns:inkscape="http://www.inkscape.org/namespaces/inkscape"
   xmlns:sodipodi="http://sodipodi.sourceforge.net/DTD/sodipodi-0.dtd"
   xmlns="http://www.w3.org/2000/svg"
   xmlns:svg="http://www.w3.org/2000/svg"><sodipodi:namedview
     id="namedview7"
     pagecolor="#ffffff"
     bordercolor="#000000"
     borderopacity="0.25"
     inkscape:showpageshadow="2"
     inkscape:pageopacity="0.0"
     inkscape:pagecheckerboard="0"
     inkscape:deskcolor="#d1d1d1"
     inkscape:document-units="mm"
     showgrid="false"
     inkscape:zoom="0.73851712"
     inkscape:cx="71.765432"
     inkscape:cy="241.02353"
     inkscape:window-width="1920"
     inkscape:window-height="1009"
     inkscape:window-x="1912"
     inkscape:window-y="-8"
     inkscape:window-maximized="1"
     inkscape:current-layer="layer1" /><defs
     id="defs2"><g
       id="g1775" /></defs><g
     inkscape:label="Layer 1"
     inkscape:groupmode="layer"
     id="layer1"
     transform="translate(-73.305475,-84.919442)"><g
       id="g1892"
       transform="matrix(0.35277778,0,0,0.35277778,34.216744,47.497005)"><g
         fill="#545454"
         fill-opacity="1"
         id="g1785"><g
           transform="translate(126.54099,236.00653)"
           id="g1783"><g
             id="g1781"><path
               d="m 30.070312,-8.105469 h 6.386719 v -25.117187 c 0,-0.167969 -0.167969,-0.378906 -0.464843,-0.378906 h -5.542969 c -0.167969,0 -0.378907,0.128906 -0.460938,0.253906 L 18.523438,-8.734375 6.46875,-33.347656 c -0.042969,-0.125 -0.292969,-0.253906 -0.421875,-0.253906 h -5.625 C 0.125,-33.601562 0,-33.390625 0,-33.222656 v 32.84375 C 0,-0.210938 0.125,0 0.421875,0 h 5.542969 c 0.25,0 0.460937,-0.210938 0.460937,-0.378906 v -18.855469 l 9.113281,17.636719 c 0.04297,0.128906 0.296876,0.253906 0.421876,0.253906 H 21.125 c 0.128906,0 0.335938,-0.125 0.378906,-0.253906 l 8.566406,-17.175782 z m 0,0"
               id="path1779" /></g></g></g><g
         fill="#545454"
         fill-opacity="1"
         id="g1793"><g
           transform="translate(164.84498,236.00653)"
           id="g1791"><g
             id="g1789"><path
               d="m 26.375,-0.503906 -12.765625,-32.84375 c -0.128906,-0.335938 -0.714844,-0.335938 -0.839844,0 L 0.0429688,-0.503906 C -0.0859375,-0.253906 0.0859375,0 0.460938,0 H 6.214844 C 6.382812,0 6.59375,-0.0859375 6.636719,-0.253906 L 13.1875,-18.984375 19.824219,-0.253906 C 19.867188,-0.0859375 20.074219,0 20.203125,0 h 5.792969 c 0.296875,0 0.507812,-0.253906 0.378906,-0.503906 z m 0,0"
               id="path1787" /></g></g></g><g
         fill="#545454"
         fill-opacity="1"
         id="g1801"><g
           transform="translate(192.56497,236.00653)"
           id="g1799"><g
             id="g1797"><path
               d="m 22.933594,-0.546875 c -2.101563,-4.660156 -4.371094,-9.28125 -6.46875,-14.027344 3.359375,-1.21875 6.171875,-3.90625 6.171875,-9.03125 0,-9.910156 -9.449219,-9.996093 -11.339844,-9.996093 h -10.875 C 0.210938,-33.601562 0,-33.390625 0,-33.222656 v 5.710937 h 11.296875 c 1.007813,0 4.957031,0.210938 4.957031,3.90625 0,3.699219 -3.570312,3.867188 -4.957031,3.867188 H 0 V -0.378906 C 0,-0.210938 0.210938,0 0.421875,0 h 5.5 c 0.253906,0 0.460937,-0.210938 0.460937,-0.378906 v -13.1875 h 3.613282 l 6.132812,13.3125 C 16.171875,-0.125 16.421875,0 16.546875,0 h 6.007813 c 0.335937,0 0.503906,-0.253906 0.378906,-0.546875 z m 0,0"
               id="path1795" /></g></g></g><g
         fill="#545454"
         fill-opacity="1"
         id="g1809"><g
           transform="translate(216.71497,236.00653)"
           id="g1807"><g
             id="g1805"><path
               d="m 26.375,-0.503906 -12.765625,-32.84375 c -0.128906,-0.335938 -0.714844,-0.335938 -0.839844,0 L 0.0429688,-0.503906 C -0.0859375,-0.253906 0.0859375,0 0.460938,0 H 6.214844 C 6.382812,0 6.59375,-0.0859375 6.636719,-0.253906 L 13.1875,-18.984375 19.824219,-0.253906 C 19.867188,-0.0859375 20.074219,0 20.203125,0 h 5.792969 c 0.296875,0 0.507812,-0.253906 0.378906,-0.503906 z m 0,0"
               id="path1803" /></g></g></g><g
         fill="#545454"
         fill-opacity="1"
         id="g1817"><g
           transform="translate(244.43496,236.00653)"
           id="g1815"><g
             id="g1813"><path
               d="m 6.425781,-19.027344 v -14.195312 c 0,-0.167969 -0.167969,-0.378906 -0.460937,-0.378906 H 0.460938 c -0.25,0 -0.460938,0.210937 -0.460938,0.378906 v 14.195312 z m 18.691407,-14.574218 h -5.503907 c -0.25,0 -0.460937,0.210937 -0.460937,0.378906 v 20.664062 H 6.425781 v -0.04297 H 0 V -0.378906 C 0,-0.210938 0.210938,0 0.460938,0 h 5.503906 c 0.292968,0 0.460937,-0.210938 0.460937,-0.378906 v -5.921875 h 12.726563 v 5.921875 C 19.152344,-0.210938 19.363281,0 19.613281,0 h 5.503907 c 0.292968,0 0.460937,-0.210938 0.460937,-0.378906 v -32.84375 c 0,-0.167969 -0.167969,-0.378906 -0.460937,-0.378906 z m 0,0"
               id="path1811" /></g></g></g><g
         fill="#545454"
         fill-opacity="1"
         id="g1825"><g
           transform="translate(106.43942,175.52466)"
           id="g1823"><g
             id="g1821"><path
               d="M 11.53125,22.882812 C 9.304688,21.160156 7.554688,19.074219 6.277344,16.625 5,14.179688 4.363281,11.542969 4.363281,8.726562 c 0,-3.207031 0.84375,-6.121093 2.535157,-8.7499995 C 8.589844,-2.648438 10.957031,-4.71875 14,-6.230469 c 3.042969,-1.515625 6.550781,-2.273437 10.527344,-2.273437 h 21.011718 l -0.04297,-6.1875 c -0.03125,-4.300782 -0.941406,-8.054688 -2.738282,-11.261719 -1.796874,-3.203125 -4.296874,-5.683594 -7.5,-7.433594 -3.207031,-1.75 -6.945312,-2.625 -11.21875,-2.625 H 6.007812 v -8.503906 h 18.476563 c 5.578125,0 10.601563,1.238281 15.066406,3.714844 4.46875,2.480469 7.984375,5.960937 10.550781,10.441406 2.570313,4.480469 3.867188,9.570313 3.898438,15.269531 L 54.042969,0 H 24.660156 c -3.738281,0 -6.636718,0.816406 -8.699218,2.449219 -2.0625,1.632812 -3.097657,3.722656 -3.097657,6.277343 0,1.601563 0.359375,3.046876 1.070313,4.339844 0.710937,1.289063 1.648437,2.367188 2.804687,3.226563 z m 0,0"
               id="path1819" /></g></g></g><g
         fill="#545454"
         fill-opacity="1"
         id="g1833"><g
           transform="translate(164.84135,175.52466)"
           id="g1831"><g
             id="g1829"><path
               d="m 7.257812,-69.445312 h 8.5 V 0 h -8.5 z m 0,0"
               id="path1827" /></g></g></g><g
         fill="#545454"
         fill-opacity="1"
         id="g1841"><g
           transform="translate(187.81041,175.52466)"
           id="g1839"><g
             id="g1837"><path
               d="m 0.222656,20.253906 c -0.921875,0 -1.972656,-0.09375 -3.160156,-0.289062 -1.1875,-0.191406 -2.210938,-0.4375 -3.070312,-0.734375 l 2.359374,-7.96875 c 1.097657,0.417969 2.3125,0.625 3.648438,0.625 3.265625,0 5.609375,-0.957031 7.035156,-2.871094 C 8.457031,7.101562 9.171875,4.363281 9.171875,0.800781 v -45.316406 l 8.5,-0.04687 v 36.058594 h 9.792969 V 0 h -9.792969 v 2.492188 c 0,3.503906 -0.601563,6.574218 -1.800781,9.214843 -1.203125,2.640625 -3.109375,4.726563 -5.722656,6.253907 -2.609376,1.53125 -5.917969,2.292968 -9.925782,2.292968 z m 0,0"
               id="path1835" /></g></g></g><g
         fill="#545454"
         fill-opacity="1"
         id="g1849"><g
           transform="translate(214.42958,175.52466)"
           id="g1847"><g
             id="g1845"><path
               d="m -0.890625,-8.503906 h 13.3125 c -2.167969,-1.484375 -3.90625,-3.433594 -5.210937,-5.851563 -1.304688,-2.417969 -1.957032,-5.039062 -1.957032,-7.859375 0,-4.035156 0.992188,-7.757812 2.980469,-11.171875 1.988281,-3.414062 4.691406,-6.121093 8.101563,-8.125 3.414062,-2.003906 7.140624,-3.003906 11.175781,-3.003906 4.035156,0 7.761719,1 11.171875,3.003906 3.414062,2.003907 6.113281,4.710938 8.101562,8.125 1.988282,3.414063 2.984375,7.136719 2.984375,11.171875 0,4.039063 -0.996093,7.761719 -2.984375,11.175782 -1.988281,3.410156 -4.6875,6.105468 -8.101562,8.078124 C 35.273438,-0.988281 31.546875,0 27.511719,0 H -0.890625 Z m 28.402344,0 c 2.492187,0 4.78125,-0.621094 6.863281,-1.867188 2.082031,-1.246094 3.742188,-2.917968 4.984375,-5.007812 1.242187,-2.09375 1.863281,-4.386719 1.863281,-6.878906 0,-2.492188 -0.621094,-4.785157 -1.867187,-6.875 -1.242188,-2.09375 -2.90625,-3.761719 -4.996094,-5.007813 -2.085937,-1.25 -4.371094,-1.871094 -6.855469,-1.871094 -2.488281,0 -4.777344,0.621094 -6.871094,1.867188 -2.089843,1.246093 -3.761718,2.917969 -5.007812,5.007812 -1.246094,2.09375 -1.871094,4.382813 -1.871094,6.878907 0,2.492187 0.625,4.785156 1.871094,6.878906 1.246094,2.089844 2.914062,3.757812 5.007812,5.007812 2.089844,1.246094 4.382813,1.867188 6.878907,1.867188 z m 0,0"
               id="path1843" /></g></g></g></g></g></svg>
